<svg xmlns="http://www.w3.org/2000/svg" xmlns:xlink="http://www.w3.org/1999/xlink" width="464" height="468"><g><svg xmlns="http://www.w3.org/2000/svg" xmlns:xlink="http://www.w3.org/1999/xlink" width="464" height="468"/><svg xmlns="http://www.w3.org/2000/svg" width="464" height="468" version="1.0" viewBox="0 0 464 468"><g fill="#fcfefe" transform="matrix(.1 0 0 -.1 0 468)"><path d="M0 2340V0h4640v4680H0V2340z"/></g></svg><svg xmlns="http://www.w3.org/2000/svg" width="464" height="468" version="1.0" viewBox="0 0 464 468"><g fill="#c8c8cb" transform="matrix(.1 0 0 -.1 0 468)"><path d="M0 2340V0h4640v4680H0V2340zm2683 2054c228-24 450-90 657-194 195-97 301-172 454-320 237-229 353-445 364-681 5-126-15-223-74-346-100-205-366-372-644-404-50-5-235-7-451-3l-366 7-6-189c-4-113-3-192 3-198 5-5 181-9 427-10l418-1v-51c-1-38-12-78-43-150-115-268-352-457-682-544-100-27-296-36-429-21-142 17-350 88-425 145-17 13-44 30-61 38-52 27-190 164-244 243-120 173-171 338-173 555-2 304 98 537 314 727 148 131 333 203 563 222 74 6 131 15 135 21 11 18 18 302 8 329-9 24-9 24-136 18-416-19-801-226-1017-548-131-195-186-343-220-594-14-102-15-139-5-255 21-236 54-359 151-550 153-301 472-558 826-664 147-44 275-61 458-61 182 1 262 12 425 62 106 33 285 116 377 176 185 119 381 356 465 560 24 58 96 302 100 342 1 10 507 9 517-1s-23-205-55-320c-58-206-170-432-303-609-59-77-272-296-283-289-4 3-8 1-8-4 0-12-112-100-191-149-133-83-236-136-363-184-240-93-420-123-746-123-248-1-338 9-530 55-156 38-248 73-397 152-112 59-287 176-363 242-79 68-248 244-255 264-3 12-10 21-14 21-10 0-93 111-146 195-93 145-214 442-249 610-37 178-41 224-40 430 1 208 6 261 46 464 99 510 408 964 865 1272 242 164 621 297 918 322 107 9 300 5 428-9zm229-916c-64-25-141-106-159-166-16-53-17-163-1-214 16-52 77-114 146-146 44-21 72-27 122-26 79 1 124 19 185 75 64 59 87 108 93 197 6 90-14 147-72 210-81 89-199 115-314 70z"/></g></svg><svg xmlns="http://www.w3.org/2000/svg" width="464" height="468" version="1.0" viewBox="0 0 464 468"><g fill="#78787a" transform="matrix(.1 0 0 -.1 0 468)"><path d="M0 2340V0h4640v4680H0V2340zm2725 2054c221-28 392-82 620-194 88-44 199-108 247-142 372-270 601-637 574-922-32-336-214-546-576-663-85-28-85-28-525-29l-440-2-3-186-2-186h435c239 0 435-3 435-7-1-35-47-180-78-246-96-203-266-357-502-455-180-74-240-86-435-87-186 0-262 12-407 66-142 52-235 109-359 221-127 113-236 294-279 463-27 104-36 284-21 400 31 229 145 439 316 582 170 142 365 210 644 226l43 2 4 172c3 106 1 174-5 178-15 9-249-12-338-31-160-32-347-112-485-205-164-112-346-334-424-519-82-196-121-411-109-615 24-450 224-805 590-1051 185-124 340-185 576-225 106-18 151-20 304-16 159 4 194 8 298 36 331 87 582 244 754 473 89 119 121 173 167 281 34 79 95 296 96 340 0 16 19 17 265 17h265v-64c0-198-130-549-295-797-245-367-671-671-1092-778-215-55-520-80-747-62-265 22-492 83-708 191-463 233-792 594-982 1082-25 62-54 151-66 198-11 47-25 101-30 120-34 132-44 440-21 625 44 356 152 663 320 916 93 140 181 241 314 366 262 244 507 379 877 483 205 58 537 77 785 44zm254-905c-95-15-180-82-219-174-28-65-24-179 8-241 56-109 207-169 334-134 55 16 129 79 162 140 38 70 43 179 10 251-53 115-170 178-295 158z"/></g></svg><svg xmlns="http://www.w3.org/2000/svg" width="464" height="468" version="1.0" viewBox="0 0 464 468"><g fill="#2a2a2b" transform="matrix(.1 0 0 -.1 0 468)"><path d="M0 2340V0h4640v4680H0V2340zm2759 2055c377-53 766-241 1037-502 300-288 418-576 358-871-61-301-336-529-706-583-60-9-183-10-449-6l-366 7-5-178c-3-97-4-178-4-179 1-1 191-3 422-4 232 0 427-5 435-10 12-7 11-22-8-94-60-230-205-421-418-550-73-43-267-119-360-141-90-20-340-20-445 0-413 79-742 380-829 757-81 357 22 715 275 947 161 149 355 224 637 247l77 7v341l-117-7c-222-13-370-53-564-152-287-146-497-393-599-702-96-293-93-626 8-914 33-92 122-256 183-338 113-149 306-308 487-399 199-100 492-159 732-147 265 13 525 96 742 239 269 176 472 479 533 797 10 52 23 101 28 108 8 9 69 12 271 10l261-3 3-38c12-146-109-521-239-740-178-300-432-540-759-715-209-112-383-165-672-207-276-39-479-31-758 31-369 83-678 256-971 546-236 232-448 619-517 938-51 237-55 281-49 488 17 632 234 1118 677 1520 280 254 604 413 990 488 185 36 461 40 679 9zm164-926c-63-24-128-85-154-145-26-61-26-183 0-239 50-110 202-177 323-141 119 34 198 143 198 271-1 199-182 325-367 254z"/></g></svg><svg xmlns="http://www.w3.org/2000/svg" width="464" height="468" version="1.0" viewBox="0 0 464 468"><g fill="#1e1e1f" transform="matrix(.1 0 0 -.1 0 468)"><path d="M0 2340V0h947c520 0 943 3 939 8-4 4-49 5-101 4-109-4-155 11-155 53 0 14 5 25 10 25 6 0 10-11 10-25 0-31 17-33 23-3 4 23 4 23 6 1 1-20 7-23 41-23h40l1 78c1 77 2 81 13 30 9-41 22-34 31 15l7 42 15-55c13-49 13-55-1-66-20-14-21-44-1-44 8 0 15 4 15 10 0 19 35 50 57 50 18 0 23-6 23-25 0-17-6-25-17-26-15 0-15-2 2-8 11-5 23-7 26-5 4 2 76 5 160 6 85 1 135 4 112 6-38 3-43 6-43 28 0 21 4 24 40 24 22 0 40 4 40 9 0 9-143 16-262 12-37-1-58 2-58 9s-6 8-19 0c-43-22-83-4-43 20 16 10 16 10 0 20-30 18-20 35 19 37 22 1 32-1 24-6-10-7-9-10 3-14 9-4 16-13 16-21 0-19 29-29 36-11 8 19-5 38-22 31-10-4-14 2-14 18 0 21 4 24 38 23 20 0 39-4 42-7 3-4 31-10 63-14 53-6 57-5 57 14 0 15 7 20 26 20 21 0 24-3 19-21-7-20-5-21 23-16 20 4 32 2 35-6 2-7 8-8 13-3s4 11-3 13c-15 5-17 33-3 33 6 0 10 11 10 24 0 40 22 49 53 20 16-15 27-20 27-12 0 19 38 40 61 33 10-4 19-11 19-16 0-6 12-8 29-4 22 5 35 0 60-20 34-29 36-29 21 11-10 25-9 26 17 20 16-4 42-9 58-11l30-4-30 8c-30 9-30 9 7 10 32 1 39-3 44-24 5-20 9-23 19-15 20 17-20 53-56 52-16 0-29 3-29 8 0 11 37 20 83 20 20 0 37 5 37 11 0 5-4 8-10 4-5-3-118-6-252-6-180 0-260 4-308 15-36 8-81 17-100 20-55 7-287 73-349 97-81 33-278 136-332 174-26 18-60 40-75 48-16 9-38 24-49 34s-45 37-75 60c-76 58-277 265-324 335-21 32-42 55-46 53s-7 1-7 8c0 18-54 97-63 92-4-3-14 3-21 13-13 15-12 16 4 3 9-7 17-10 17-7 0 10-33 60-45 68-5 4-6 8-2 8s3 9-3 20-15 18-20 15-8 3-8 12c1 10-13 49-30 86-18 38-35 79-38 93-3 13-10 27-15 30s-9 14-9 24-6 25-13 32c-8 7-14 20-15 28-1 14-43 173-62 236-6 17-10 40-10 52s-6 22-12 22c-9 0-8 4 2 10 8 5 10 10 5 10-6 0-11 8-12 18 0 9-4 58-7 107-15 209-9 360 20 500 56 277 84 384 118 459 14 31 26 59 26 61s11 29 25 59 29 65 34 78c21 50 152 246 232 345 98 123 319 325 453 415 50 33 90 64 89 68s3 7 10 6c7 0 68 27 137 61 112 55 305 128 363 137 11 1 23 8 25 14 5 15 8 15-54-2-50-13-50-13-46 15 2 16 11 29 18 29 8 0 23 6 34 13 17 10 22 9 30-3 5-8 6-18 4-22-3-4 0-8 5-8 6 0 11 5 11 10 0 6 10 10 23 10 20-1 20-2 5-11-10-5-18-15-18-21 0-7 5-7 14 1 10 8 15 9 18 1 2-7 10-5 23 5 16 12 17 14 3 9-10-3-18-1-18 5s8 11 18 12c10 0 12 3 4 6-6 2-10 10-6 16 3 7 0 5-8-3-13-16-37-16-73 0-11 5-27 10-35 13-8 2 27 9 78 17 85 12 92 15 92 36 0 12 5 26 10 29 6 3 10-1 10-9s9-18 20-21c23-7 60 2 60 16 0 5 33 10 73 11 72 1 72 1 17 8-69 8-54 10 142 14 178 3 229 16 65 16-59 0-107 4-107 8s39 9 87 10c122 4 117 12-8 13-57 1-96 3-86 6 12 3 17 15 17 44v39H0V2340zm1760 2321c0-12-26-21-58-20-26 0-25 1 8 14 43 17 50 17 50 6zm480-21c0-5-5-10-11-10-5 0-7 5-4 10 3 6 8 10 11 10 2 0 4-4 4-10zm0-40c0-5-15-10-32-9-31 1-32 1-8 9 35 11 40 11 40 0zm73-7c-7-2-19-2-25 0-7 3-2 5 12 5s19-2 13-5zm-14-29c2-2-22-4-55-3-42 0-53 3-39 9 18 8 83 3 94-6zm-389-34c0-5-4-10-10-10-5 0-10 5-10 10 0 6 5 10 10 10 6 0 10-4 10-10zm90-40c0-5-7-10-15-10s-15 5-15 10c0 6 7 10 15 10s15-4 15-10zm-323-47c-3-2-13-3-23-1-16 3-16 4 2 22s19 18 22 2c2-10 1-20-1-23zm133-43c0-5-4-10-10-10-5 0-10 5-10 10 0 6 5 10 10 10 6 0 10-4 10-10zm-118-59c14-17 14-20 2-25-8-3-13-2-9 3 3 5-2 17-11 25-8 9-12 16-7 16s16-9 25-19zm98-5c0-2-12-3-27-3-16 0-22 2-15 4 6 3 9 9 6 15-4 6 2 5 15-1 11-7 21-13 21-15zm-142-6c8 0 13-3 9-6-3-4-18-3-34 0-21 6-24 9-12 16 8 6 15 6 17 0s11-10 20-10zM670 1330c0-5-2-10-4-10-3 0-8 5-11 10-3 6-1 10 4 10 6 0 11-4 11-10zm1000-924c0-16-18-31-27-22-8 8 5 36 17 36 5 0 10-6 10-14zm63-13c-7-2-19-2-25 0-7 3-2 5 12 5s19-2 13-5zm94-9c-3-3-12-4-19-1-8 3-5 6 6 6 11 1 17-2 13-5zm-42-26c-10-34-25-46-25-21 0 12 6 24 13 26 9 4 9 6-1 6-7 1-17-10-24-24-11-25-28-25-28 1 0 14 31 32 58 33 9 1 11-6 7-21zm-86 5c0-5-4-17-9-28-8-18-9-17-9 8-1 15 4 27 9 27 6 0 10-3 9-7zm409-29c39-7 79-29 74-41-2-4 1-9 7-11s14 3 17 12c7 17 34 22 34 6 0-5-4-10-10-10-5 0-10-11-10-25 0-17-5-25-18-25-18 0-48 38-44 54 4 14-19 26-50 26-25 0-33-9-29-32 0-5-7-8-16-8-15 0-16-2-3-10 13-9 13-11 0-20-13-8-12-10 3-10 9 0 17-5 17-11 0-7-9-9-22-5-13 3-49 9-80 13-62 6-80 22-24 20 18 0 46 8 62 18 29 19 29 19 4 26-15 4-18 7-8 8 27 2 31 20 6 31-24 11-2 9 90-6zm-288-14c0-12 10-24 23-30 22-9 22-9-3-9-26-1-56 32-45 49s25 11 25-10zm100-5c0-8-9-15-20-15-20 0-26 11-13 23 12 13 33 7 33-8zm-153-27c-3-8-6-5-6 6-1 11 2 17 5 13 3-3 4-12 1-19zm670 16c-3-3-12-4-19-1-8 3-5 6 6 6 11 1 17-2 13-5zm-440-28c4-3-12-6-35-6s-42 3-42 8c0 9 68 7 77-2zm123-16c0-13-7-20-20-20s-20 7-20 20 7 20 20 20 20-7 20-20zm-273-12c-3-8-6-5-6 6-1 11 2 17 5 13 3-3 4-12 1-19zm54-1c-13-13-26-3-16 12 3 6 11 8 17 5 6-4 6-10-1-17zm-281-67c0-5-4-10-10-10-5 0-10 5-10 10 0 6 5 10 10 10 6 0 10-4 10-10zm0-40c0-5-4-10-10-10-5 0-10 5-10 10 0 6 5 10 10 10 6 0 10-4 10-10zm60-4c0-9-7-12-20-9-11 3-17 9-14 14 8 14 34 10 34-5zm-73-68c-2-13-4-5-4 17-1 22 1 32 4 23 2-10 2-28 0-40zm523 10c0-16-3-19-11-11-6 6-8 16-5 22 11 17 16 13 16-11zm-93 6c-3-3-12-4-19-1-8 3-5 6 6 6 11 1 17-2 13-5zm13-30c0-2-9-4-21-4-11 0-18 4-14 10 5 8 35 3 35-6zm-515-4c3-5 1-10-4-10-6 0-11 5-11 10 0 6 2 10 4 10 3 0 8-4 11-10zm858 4590c0-25 2-35 4-22 2 12 2 32 0 45-2 12-4 2-4-23zm17 0c0-33 3-40 20-40s20 7 20 40-3 40-20 40-20-7-20-40zm598 33c6-2 18-2 25 0 6 3 1 5-13 5s-19-2-12-5zm-190-10c12-2 32-2 45 0 12 2 2 4-23 4s-35-2-22-4zm40-60c7-3 16-2 19 1 4 3-2 6-13 5-11 0-14-3-6-6zm-98-13c0-5 5-10 10-10 6 0 10 5 10 10 0 6-4 10-10 10-5 0-10-4-10-10zm-435-70c-8-13 25-13 45 0 12 8 9 10-12 10-15 0-30-4-33-10zm75 0c0-5 18-9 40-8s40 5 40 10c0 4-18 8-40 8s-40-4-40-10zm168-7c7-3 16-2 19 1 4 3-2 6-13 5-11 0-14-3-6-6zm-328-13c0-5 7-10 15-10s15 5 15 10c0 6-7 10-15 10s-15-4-15-10zm400-20c0-19-31-39-65-41l-30-1 30-7c17-4 38-4 47 1 18 9 34 46 24 55-3 4-6 0-6-7zm-400-12c0-5 37-7 83-7 85 2 75 6-26 11-31 2-57 0-57-4zm170-8c0-5 7-10 15-10s15 5 15 10c0 6-7 10-15 10s-15-4-15-10zm54-1c-6-11 86-12 102-1 7 4-12 8-42 8-30 1-57-2-60-7zm-385-4c-1-3-3-9-4-15-1-5-3-14-4-19 0-5-9-12-18-14-12-3-10-5 7-6 21-1 25 4 27 29s-4 42-8 25zm67-10c-3-8-1-15 4-15 6 0 10 7 10 15s-2 15-4 15-6-7-10-15zm514 5c0-5 5-10 11-10 5 0 7 5 4 10-3 6-8 10-11 10-2 0-4-4-4-10zm47 3c-4-3-2-12 4-20 9-10 5-12-22-8-34 5-34 5-4-5 17-5 35-8 42-5 7 2 15 0 18-5 8-13 75-13 75 0 0 6-11 10-24 10-14 0-28 5-31 10-4 6-11 7-17 4-6-4-16 0-23 9s-15 14-18 10zm-522-33c-3-5-1-10 4-10 6 0 11 5 11 10 0 6-2 10-4 10-3 0-8-4-11-10zm73 3c6-2 18-2 25 0 6 3 1 5-13 5s-19-2-12-5zm-110-10c7-3 16-2 19 1 4 3-2 6-13 5-11 0-14-3-6-6zm705 0c9-2 23-2 30 0 6 3-1 5-18 5-16 0-22-2-12-5zm77-13c19-13 30-13 30 0 0 6-10 10-22 10-19 0-20-2-8-10zm-60-8c0-4 9-8 20-9s20 2 20 8c0 5-9 9-20 9s-20-4-20-8zm60-21c8-5 29-11 45-15 30-6 30-6 5 9-14 8-34 14-45 14-16 0-17-1-5-8zm110-2c0-4 10-9 22-12 12-4 19-9 16-12-3-4-16-2-27 5-12 6-27 8-34 3-22-14 73-29 151-24 13 0 21 5 18 10-3 4-16 6-30 4-13-3-27 0-30 6-5 7-1 9 11 4 15-5 16-4 5 8-12 13-102 20-102 8zm67-31c-3-8-6-5-6 6-1 11 2 17 5 13 3-3 4-12 1-19zm75-18c-35-8-54-20-33-20 7 0 51-18 98-40 80-37 112-43 97-18-4 7-2 8 4 4s10 1 9 13c0 11-6 17-14 14-7-3-13 0-13 5 0 9-31 25-52 27-4 0-13 6-19 13-14 13-28 14-77 2zm13-20c3-6-1-7-9-4-18 7-21 14-7 14 6 0 13-4 16-10zm155-80c0-5 17-17 38-27 65-30 190-110 254-163 47-37 64-46 68-35 3 10 9 11 20 5 10-7 11-10 2-10-19 0-10-22 18-45 14-11 35-32 48-47 23-27 44-30 64-10 10 10 8 14-10 19-14 3-21 11-18 20 4 10 1 11-13 4-21-12-32-5-24 15 3 9-2 14-16 14-12 0-21 5-21 11 0 5-4 7-10 4-5-3-10-2-10 4 0 5 5 13 10 16 16 10 1 25-18 18-15-6-16-5-2 13 14 17 14 18-2 6-20-16-40-8-31 13 3 8 0 15-5 15-6 0-13 8-16 18-7 20-54 44-69 35-6-3-7-1-4 4 9 14-71 57-101 55-13-1-21 2-18 6 2 4-4 9-15 9-11 1-17-2-14-8 4-5 1-9-4-9-17 0-13 18 7 30 15 10 15 11-5 7-14-3-20-1-17 8 3 8-9 12-41 13-25 0-45-4-45-8zm167-65c0-8-4-12-9-9s-6 10-3 15c9 13 12 11 12-6zm128-67c14-6 25-15 25-20 0-7-31 8-59 29-10 7 10 2 34-9zm0-36c-3-3-11 0-18 7-9 10-8 11 6 5 10-3 15-9 12-12zm50-42c3-6-1-7-9-4-18 7-21 14-7 14 6 0 13-4 16-10zm92-66c-3-3-12-4-19-1-8 3-5 6 6 6 11 1 17-2 13-5zm44-41c9-9 7-11-5-9-9 1-21 7-27 13-9 9-7 11 5 9 9-1 21-7 27-13zm18-39c-9-11-8-14 5-14 11 0 14 5 10 12s-3 8 5 4c9-6 9-11 0-22-6-8-7-14-2-14s26-23 47-51 40-48 43-45c11 11 32-15 26-32-3-11-2-13 4-6 4 6 15 14 23 17 12 4 12 6-2 6-11 1-15 8-13 26 2 22 0 23-14 13-14-12-14-10 1 13 13 20 13 26 3 26-8 0-12-4-9-8 2-4 0-10-6-14-5-3-10-1-10 6 0 8-5 7-17-2-16-13-17-12-5 3 15 18 1 58-19 58-6 0-9 7-5 15 3 8 2 14-2 14-4-1-9 0-12 1-22 8-41 6-51-6zm45-24c-6-6-10-3-10 10s4 16 10 10c7-7 7-13 0-20zm23-32c2-17 0-19-7-8-5 8-6 18-4 22 8 12 10 10 11-14zm113-102c0-2 7-9 15-16 13-11 14-10 9 4s-24 23-24 12zm-10-28c12-13 19-30 17-40-3-10 0-15 8-12 7 3 15-3 18-13 2-10 4-2 4 17s-2 29-5 22c-3-9-11-2-23 17-10 17-23 31-29 31s-1-10 10-22zm-1755-108c-365-26-686-183-903-442-160-191-255-419-288-693-11-90-7-304 6-355 7-25 13-60 15-78s8-45 13-60c6-15 16-52 23-82 15-70 39-130 51-130 5 0 7-4 4-9s1-12 10-15c8-3 12-10 9-16-3-5-1-10 4-10 6 0 11-7 11-15s5-15 11-15c5 0 8-4 5-9s4-21 16-37c13-15 17-25 10-21-8 6-10 3-6-7 3-9 10-16 15-16s9-6 9-14c0-39 209-263 305-328 33-23 69-49 80-58 23-20 189-108 252-133 51-20 171-52 273-73 121-25 386-30 505-10 300 51 570 179 755 358 119 115 231 277 279 403 27 70 37 97 51 128 12 27 50 203 50 232 0 19 4 20 174 17 96-2 190 1 208 6 49 13-181 27-249 15-39-8-50-7-47 2 3 7-4 15-15 18-29 7-62-3-54-17 4-6-1-5-10 3-15 12-17 10-18-15 0-25-1-26-9-9-7 17-9 17-9 3-1-10-5-18-10-18-13 0-18-30-10-60 7-30-15-60-25-34-9 24-7 31 4 14 8-12 10-9 10 13 0 17-5 27-15 27-8 0-15 6-15 13 0 20-43 57-66 57-16 0-17 2-4 10s12 10-2 10-18 9-18 40c0 36-2 40-25 40-16 0-25-6-25-15 0-19-16-20-23-1-6 15 20 26 61 26 13 0 20 4 17 10s-17 10-31 10c-13 0-24 5-24 10 0 6 5 10 11 10 5 0 7 5 3 11-4 8-9 7-15-2-20-30-49 47-40 104 3 17-20 5-29-15-5-13-9-17-9-11-1 7-15 26-32 43-22 21-27 30-16 30 9 0 23-10 31-22 16-22 16-22 16 0 0 12-4 22-10 22-5 0-10 5-10 11 0 7 11 9 30 6 22-5 30-3 30 8 0 8 6 15 13 16 6 0 22 2 35 5 13 2 33-1 45-8 21-11 21-10 7 7s-13 18 3 12c10-4 16-3 12 2-5 9 32 27 48 23 4-1 16 5 25 15 20 19 31 22-113-27-147-49-182-52-607-48l-393 3v-355l424 1c376 1 426-1 436-15 7-9 15-13 18-10s11 3 17-1c9-6 9-9-1-15-7-5-12-22-12-39 0-31-11-41-20-18-4 9-6 9-6-1-1-7 6-15 14-18 8-4 15-13 15-21 0-12-2-12-16 1-21 21-23 20-18-6 2-13 1-17-2-10-3 8-27-33-55-95-89-196-237-345-444-448-185-91-321-125-505-125-307 0-569 100-781 298-42 39-78 69-81 67-3-3-5 1-5 7 0 7-22 44-49 81-27 38-54 77-60 88-6 10-14 16-18 12s-4 0 0 10c3 9 2 17-3 17s-10 6-11 13c-1 6-15 51-32 99s-35 111-41 140c-14 68-13 292 1 355 28 120 34 142 58 208 14 39 31 77 37 85s17 27 24 42c25 49 120 162 186 220 91 80 187 134 318 180 135 46 134 46 270 54l107 7 2 149c1 81 2 156 2 165 1 22-3 22-139 13zm1132-1186c-3-3-12-4-19-1-8 3-5 6 6 6 11 1 17-2 13-5zm33-34c0-5-4-10-9-10-6 0-13 5-16 10-3 6 1 10 9 10 9 0 16-4 16-10zm23-245c-3-9-8-14-10-11-3 3-2 9 2 15 9 16 15 13 8-4zm188-35c22 0 39-5 39-11 0-7-12-9-36-4-26 4-39 2-45-7-6-8-8 2-7 27 0 23 3 30 5 18 4-19 11-23 44-23zm256 34c-3-3-12-4-19-1-8 3-5 6 6 6 11 1 17-2 13-5zm-250-70c-3-3-12-4-19-1-8 3-5 6 6 6 11 1 17-2 13-5zm-27-84c0-5-4-10-10-10-5 0-10 5-10 10 0 6 5 10 10 10 6 0 10-4 10-10zm475 1599c-4-6-5-12-2-15 2-3 7 2 10 11 7 17 1 20-8 4zm41-64c-3-9-6-22-5-28 0-7 5-1 10 12s8 26 5 28c-2 2-6-3-10-12zm-1224-26c-24-10-41-23-37-29 3-5 0-7-8-4-17 6-76-63-82-97-2-11-9-27-15-34-15-18-1-47 19-41 11 4 10 1-4-9-14-12-17-18-8-23 18-11 22-58 5-54-8 1-11-2-7-7 6-10 31-5 52 11 7 5 14 5 18-2 3-5-1-10-9-10-12 0-16-11-16-45 0-47 9-56 30-30 18 22 28 18 26-9-1-17-4-21-13-15-7 7-14 6-18-1-4-6-14-9-22-6s-11 1-8-5c4-5 14-7 23-5 10 3 24 1 32-4 13-9 12-12-4-25-11-8-17-17-14-20s11 1 18 10c12 14 40 21 40 9s-28-33-35-26c-5 4-5 2-1-5s14-9 23-6c11 4 14 3 9-5-10-16 6-15 23 1 11 10 12 9 6-2-4-8-2-17 6-22 19-12 102-11 153 2 47 12 120 65 110 80-3 5 0 8 8 7 7-2 12 5 11 15 0 12 4 16 13 13 8-3 13-2 12 2s3 17 10 30c7 12 10 32 6 44-4 13-2 18 4 14 5-3 13 1 16 10 9 24 7 82-3 89-6 3-10 13-10 23 1 31-8 56-19 60-7 2-10 8-7 12 9 15-67 92-110 111-54 25-165 24-223-2zm143-49c3-5 2-10-4-10-5 0-13 5-16 10-3 6-2 10 4 10 5 0 13-4 16-10zm-62-7c-7-2-19-2-25 0-7 3-2 5 12 5s19-2 13-5zm-133-43c0-5-2-10-4-10-3 0-8 5-11 10-3 6-1 10 4 10 6 0 11-4 11-10zm362 1c7 11 8 9 4-5-4-11 0-23 9-30 13-9 12-11-8-12s-24 3-24 30c0 17 2 25 5 17 4-11 6-11 14 0zm-74-29c6-18-15-14-22 4-4 10-1 14 6 12 6-2 14-10 16-16zm-328 2c0-8-19-13-24-6-3 5 1 9 9 9s15-2 15-3zm170-4c0-5-7-10-15-10s-15 5-15 10c0 6 7 10 15 10s15-4 15-10zm-107-7c-7-2-19-2-25 0-7 3-2 5 12 5s19-2 13-5zm184 1c-3-3-12-4-19-1-8 3-5 6 6 6 11 1 17-2 13-5zm-273-38c-6-16-24-23-24-8 0 10 22 33 27 28 2-2 1-11-3-20zm206-306c8-5 11-10 5-10-5 0-17 5-25 10s-10 10-5 10c6 0 17-5 25-10zm1140 431c0-5 5-13 10-16 6-4 10-18 9-33-2-30 24-86 34-75 12 11 8 33-5 31-8-2-14 11-16 36-3 33-32 86-32 57zm-1389-185c-1-26 2-37 9-30 6 6 6 21 1 39-9 30-9 30-10-9zm1439-21c0-17 5-25 18-25 12 0 14 2 4 8-7 5-10 16-6 25 3 10 1 17-5 17s-11-11-11-25zm1-101c0-11 3-14 6-6 3 7 2 16-1 19-3 4-6-2-5-13zm-1401-8c0-8 4-17 9-20 5-4 7 3 4 14-6 23-13 26-13 6zm1366-143c-6-14-5-15 5-6 7 7 10 15 7 18s-9-2-12-12zm-40-130c-6-14-5-15 5-6 7 7 10 15 7 18s-9-2-12-12zm-49-48c3-8 9-12 14-9 12 7 11 11-5 17-10 4-13 1-9-8zm-42-45c-16-16-23-30-17-30 7 0 12 5 12 11 0 5 5 7 12 3 6-4 8-3 4 4-3 6-2 13 4 17 5 3 10 2 10-3s6-9 13-9c8 0 14 6 14 13s-7 10-15 6c-10-3-13-1-8 6 12 20 1 13-29-18zm20-30c-3-6 1-7 9-4 18 7 21 14 7 14-6 0-13-4-16-10zm-60-19c-3-5 0-13 6-17 7-4 9-3 5 4-3 6 3 12 16 15 23 4 23 4 1 6-12 0-24-3-28-8zm-60-46c-22-19-39-40-37-46s-4-9-12-6-22-1-33-9c-17-14-17-15 2-6 11 5 26 7 33 5 7-3 16 4 19 15 3 13 11 19 23 17 14-3 17 1 13 12-5 13-2 13 28-1 22-11 28-12 17-3-13 10-15 16-6 25s9 12-1 12c-7 0-9 5-6 10 10 16 2 11-40-25zm35 5c0-5-5-10-11-10-5 0-7 5-4 10 3 6 8 10 11 10 2 0 4-4 4-10zm-360-350c0-5 5-10 11-10 5 0 7 5 4 10-3 6-8 10-11 10-2 0-4-4-4-10zm167-207c-4-3-7-13-7-22 1-13 3-13 11 2 11 19 8 33-4 20zm614-153 1-55 9 45c5 28 5 48-1 54-7 7-10-9-9-44zm-9-95c0-16 2-22 5-12 2 9 2 23 0 30-3 6-5-1-5-18zm-21-101c0-11 3-14 6-6 3 7 2 16-1 19-3 4-6-2-5-13zm-21-69c-8-9-8-15-2-15 12 0 26 19 19 26-2 2-10-2-17-11zm-40-124c-6-12-16-18-22-15-7 5-9 2-5-9 3-9-1-29-9-46-8-16-17-39-19-51-7-35 13-12 31 38 10 26 24 57 32 70 8 12 12 25 9 28s-10-4-17-15zm-79-158c3-21-2-26-12-13-9 12-10 12-5-4 4-12-2-24-19-38-14-11-25-26-25-34s-5-14-11-14c-8 0-7-6 2-17 8-9 9-14 3-10-7 4-16 1-22-6-8-10-6-13 9-13 10 0 19 3 19 7 0 3 9 17 21 30 11 13 18 31 16 41-3 10-2 16 2 14 9-6 34 22 44 47 4 11 1 17-8 17-8 0-14-3-14-7zm-111-198c-7-9-15-13-18-10-10 9-32-17-32-38 0-11-3-18-6-14-3 3-25-18-48-46-23-29-59-70-79-91-19-22-33-44-30-50 3-5 1-6-5-2-14 8-55-31-47-44 4-6-1-7-11-3-11 4-15 2-12-7 2-8 9-15 14-17 12-4 95 73 87 81-4 3 1 6 9 6s38 23 67 51c46 45 57 65 52 93-1 5 5 6 14 2 10-3 15-1 13 7-3 18 12 57 22 57 5 0 14 9 20 20 13 24 8 26-10 5zm-345-359c-22-24-43-42-47-40-11 7-68-47-61-58 3-7 1-8-6-4-6 4-39-13-77-40-37-25-107-68-156-94-50-26-85-51-79-54 6-4 17-4 24 1 6 4 19 8 27 8s14 6 12 13c-1 6 4 12 12 12 21 0 67 26 59 33-3 4-1 7 5 7 5 0 18 3 28 7 13 5 16 3 11-10-3-9-2-17 3-17 6 0 10 10 11 23 0 21 1 21 9 2 8-18 9-18 9-2 1 15 6 17 30 12 21-4 29-2 28 7-1 34 4 48 19 48 11 0 14 5 10 17-4 10-4 14 0 10 6-6 52 28 114 87 14 13 35 27 48 31 16 4 21 12 17 22-5 14-3 14 12 2 16-13 17-12 4 4-7 9-16 17-20 17-3-1-24-20-46-44zm-109-134c-2-4 4-8 14-8s16 4 14 8c-3 4-9 8-14 8s-11-4-14-8zm-91-82c-3-5-1-10 4-10 6 0 11 5 11 10 0 6-2 10-4 10-3 0-8-4-11-10zm-258-77c-10-9-9-23 1-23 5 0 9 7 9 15 0 17-1 18-10 8zm98-3c-3-6 1-7 9-4 18 7 21 14 7 14-6 0-13-4-16-10zm-179-36c-9-8-16-13-16-10s-28-5-62-18c-35-13-108-34-163-47s-101-26-103-30c-1-3-14-4-27-1-15 2-25 0-25-8 0-6-8-9-18-6-9 3-37 2-62-3l-45-9h50c73 1 113-10 120-33 8-24 66-26 90-3 11 12 25 14 50 10 32-6 35-5 35 17 0 28 30 60 37 40 3-7 11-13 18-13 20 0 24 23 6 38-14 11-14 12 4 11 33-2 41 1 25 11-11 7-7 10 18 10 17 0 32 5 32 10 0 6 7 10 15 10 9 0 25 9 37 20s17 20 11 20c-7 0-19-7-27-16zm-186-104c0-13-5-18-15-14-8 4-15 1-15-5s-4-11-10-11c-5 0-10 6-10 13 0 10 8 17 48 36 1 0 2-8 2-19zm-66-15c2-6-14-10-35-10s-41 5-43 10c-2 6 14 10 35 10s41-4 43-10zm-26-41c-4-3-19-4-35-2-28 4-28 4-3 15 23 10 51 1 38-13zm-126-34c15-24 33-27 24-4-3 9-6 18-6 20s-7 4-15 4c-13 0-13-3-3-20zm93-19c-10-18 17-23 33-7 15 15 15 16-5 16-12 0-24-4-28-9zm47-31c-15-24-16-40-2-40 6 0 10 9 10 20s7 20 15 20 15 5 15 10c0 17-25 11-38-10zm-247 0c-3-5-1-10 4-10 6 0 11 5 11 10 0 6-2 10-4 10-3 0-8-4-11-10zm170-20c-3-5-1-10 4-10 6 0 11 5 11 10 0 6-2 10-4 10-3 0-8-4-11-10zm-927-27c6-2 18-2 25 0 6 3 1 5-13 5s-19-2-12-5zm37-23c-3-11-2-28 4-37 8-15 10-11 11 20 0 41-5 47-15 17zm261 4c-9-25-7-64 4-64 6 0 10 8 10 19 0 10 9 21 20 24s20 12 20 21c0 21-46 21-54 0zm11-71c-11-10-8-41 4-49 16-10 29 9 23 34-6 22-15 27-27 15zm48-14c-4-12-2-26 4-32 8-8 11-2 11 21 0 37-6 41-15 11zm160 11c3-5 8-10 11-10 2 0 4 5 4 10 0 6-5 10-11 10-5 0-7-4-4-10zM1905 10c-4-6 3-10 14-10 25 0 27 6 6 13-8 4-17 2-20-3z"/></g></svg></g></svg>